<svg xmlns="http://www.w3.org/2000/svg" viewBox="0 0 256 256">
  <rect width="256" height="256" fill="#F5F5DC"/>
  <path d="M70 80 L70 176 L95 176 Q125 176 140 161 Q155 146 155 128 Q155 110 140 95 Q125 80 95 80 Z M85 95 L95 95 Q118 95 129 106 Q140 117 140 128 Q140 139 129 150 Q118 161 95 161 L85 161 Z" fill="#8B7355"/>
  <path d="M165 80 L165 176 L180 176 L180 138 L200 176 L218 176 L195 134 Q210 130 218 118 Q226 106 226 90 Q226 80 220 80 L165 80 Z M180 95 L210 95 Q211 95 211 90 Q211 106 205 114 Q199 122 188 122 L180 122 Z" fill="#8B7355"/>
</svg>